<?xml version="1.0" encoding="UTF-8" standalone="no"?>
<svg
   xmlns:dc="http://purl.org/dc/elements/1.1/"
   xmlns:cc="http://creativecommons.org/ns#"
   xmlns:rdf="http://www.w3.org/1999/02/22-rdf-syntax-ns#"
   xmlns:svg="http://www.w3.org/2000/svg"
   xmlns="http://www.w3.org/2000/svg"
   xmlns:sodipodi="http://sodipodi.sourceforge.net/DTD/sodipodi-0.dtd"
   xmlns:inkscape="http://www.inkscape.org/namespaces/inkscape"
   width="36.72pt"
   height="36.576pt"
   viewBox="0 0 36.72 36.576"
   version="1.1"
   id="svg29"
   sodipodi:docname="vignette_signals2.svg"
   inkscape:export-filename="/home/torro/Documents/GitHub/celldetective/celldetective/icons/vignette_signals2.png"
   inkscape:export-xdpi="1960.6298"
   inkscape:export-ydpi="1960.6298"
   inkscape:version="0.92.5 (2060ec1f9f, 2020-04-08)">
  <sodipodi:namedview
     pagecolor="#ffffff"
     bordercolor="#666666"
     borderopacity="1"
     objecttolerance="10"
     gridtolerance="10"
     guidetolerance="10"
     inkscape:pageopacity="0"
     inkscape:pageshadow="2"
     inkscape:window-width="1848"
     inkscape:window-height="1016"
     id="namedview31"
     showgrid="false"
     inkscape:zoom="4.8392388"
     inkscape:cx="24.480001"
     inkscape:cy="24.384"
     inkscape:window-x="72"
     inkscape:window-y="27"
     inkscape:window-maximized="1"
     inkscape:current-layer="svg29" />
  <metadata
     id="metadata2">
    <rdf:RDF>
      <cc:Work>
        <dc:type
           rdf:resource="http://purl.org/dc/dcmitype/StillImage" />
        <dc:date>2023-12-06T11:47:34.252599</dc:date>
        <dc:format>image/svg+xml</dc:format>
        <dc:creator>
          <cc:Agent>
            <dc:title>Matplotlib v3.7.1, https://matplotlib.org/</dc:title>
          </cc:Agent>
        </dc:creator>
      </cc:Work>
    </rdf:RDF>
  </metadata>
  <defs
     id="defs6">
    <style
       type="text/css"
       id="style4">*{stroke-linejoin: round; stroke-linecap: butt}</style>
  </defs>
  <g
     id="figure_1">
    <g
       id="patch_1">
      <path
         d="M 0 36.576  L 36.72 36.576  L 36.72 0  L 0 0  L 0 36.576  z "
         style="fill: none"
         id="path8" />
    </g>
    <g
       id="axes_1">
      <g
         id="patch_2">
        <path
           d="M 7.2 29.376  L 29.52 29.376  L 29.52 7.2  L 7.2 7.2  L 7.2 29.376  z "
           style="fill: none"
           id="path11" />
      </g>
      <g
         id="matplotlib.axis_1" />
      <g
         id="matplotlib.axis_2" />
      <g
         id="line2d_1">
        <path
           d="M 8.214545 28.368  L 8.541818 28.368  L 8.869091 28.368  L 9.196364 28.368  L 9.523636 28.368  L 9.850909 28.368  L 10.178182 28.368  L 10.505455 28.368  L 10.832727 28.368  L 11.16 28.368  L 11.487273 28.368  L 11.814545 28.368  L 12.141818 28.368  L 12.469091 28.368  L 12.796364 28.367999  L 13.123636 28.367997  L 13.450909 28.367992  L 13.778182 28.367977  L 14.105455 28.367938  L 14.432727 28.367831  L 14.76 28.367541  L 15.087273 28.366753  L 15.414545 28.364611  L 15.741818 28.358794  L 16.069091 28.343014  L 16.396364 28.300369  L 16.723636 28.18625  L 17.050909 27.888762  L 17.378182 27.163456  L 17.705455 25.650351  L 18.032727 23.315507  L 18.36 20.980663  L 18.687273 19.467558  L 19.014545 18.742252  L 19.341818 18.444765  L 19.669091 18.330645  L 19.996364 18.288  L 20.323636 18.27222  L 20.650909 18.266403  L 20.978182 18.264261  L 21.305455 18.263473  L 21.632727 18.263183  L 21.96 18.263076  L 22.287273 18.263037  L 22.614545 18.263023  L 22.941818 18.263017  L 23.269091 18.263015  L 23.596364 18.263015  L 23.923636 18.263014  L 24.250909 18.263014  L 24.578182 18.263014  L 24.905455 18.263014  L 25.232727 18.263014  L 25.56 18.263014  L 25.887273 18.263014  L 26.214545 18.263014  L 26.541818 18.263014  L 26.869091 18.263014  L 27.196364 18.263014  L 27.523636 18.263014  L 27.850909 18.263014  L 28.178182 18.263014  L 28.505455 18.263014  "
           clip-path="url(#p5a44101f50)"
           style="fill: none; stroke: #d62728; stroke-width: 3; stroke-linecap: square"
           id="path16" />
      </g>
      <g
         id="line2d_2">
        <path
           d="M 8.214545 8.208  L 8.541818 8.21903  L 8.869091 8.232487  L 9.196364 8.248898  L 9.523636 8.268906  L 9.850909 8.293291  L 10.178182 8.322994  L 10.505455 8.359154  L 10.832727 8.403144  L 11.16 8.456611  L 11.487273 8.521529  L 11.814545 8.600248  L 12.141818 8.695553  L 12.469091 8.810719  L 12.796364 8.949567  L 13.123636 9.116504  L 13.450909 9.316548  L 13.778182 9.555314  L 14.105455 9.838946  L 14.432727 10.173983  L 14.76 10.567116  L 15.087273 11.024834  L 15.414545 11.552932  L 15.741818 12.155886  L 16.069091 12.836136  L 16.396364 13.593327  L 16.723636 14.423635  L 17.050909 15.319304  L 17.378182 16.268539  L 17.705455 17.255871  L 18.032727 18.263014  L 18.36 19.270158  L 18.687273 20.257489  L 19.014545 21.206724  L 19.341818 22.102393  L 19.669091 22.932702  L 19.996364 23.689892  L 20.323636 24.370142  L 20.650909 24.973096  L 20.978182 25.501194  L 21.305455 25.958912  L 21.632727 26.352045  L 21.96 26.687082  L 22.287273 26.970714  L 22.614545 27.20948  L 22.941818 27.409524  L 23.269091 27.576462  L 23.596364 27.71531  L 23.923636 27.830476  L 24.250909 27.92578  L 24.578182 28.004499  L 24.905455 28.069417  L 25.232727 28.122885  L 25.56 28.166874  L 25.887273 28.203035  L 26.214545 28.232738  L 26.541818 28.257122  L 26.869091 28.27713  L 27.196364 28.293542  L 27.523636 28.306998  L 27.850909 28.318028  L 28.178182 28.327068  L 28.505455 28.334476  "
           clip-path="url(#p5a44101f50)"
           style="fill: none; stroke: #1f77b4; stroke-width: 3; stroke-linecap: square"
           id="path19" />
      </g>
    </g>
  </g>
  <defs
     id="defs27">
    <clipPath
       id="p5a44101f50">
      <rect
         x="7.2"
         y="7.2"
         width="22.32"
         height="22.176"
         id="rect24" />
    </clipPath>
  </defs>
</svg>
